<?xml version="1.0" encoding="utf-8"?><svg xmlns="http://www.w3.org/2000/svg" xmlns:xlink="http://www.w3.org/1999/xlink"><symbol viewBox="0 0 22 24" id="basket" xmlns="http://www.w3.org/2000/svg"><g clip-path="url(#aa)"><path d="M10.363 18.443a2.046 2.046 0 0 0-2.045 2.042 2.046 2.046 0 0 0 4.09 0 2.046 2.046 0 0 0-2.045-2.042Zm6.134 0a2.046 2.046 0 0 0-2.045 2.042 2.046 2.046 0 0 0 4.089 0 2.046 2.046 0 0 0-2.044-2.042Zm3.978-8.199L7.413 6.891a.614.614 0 0 0-.75.73L8.67 16.4h-.786L5.482 5.895a.613.613 0 0 0-.474-.464l-4.27-.882A.614.614 0 0 0 .489 5.75l3.885.802L6.797 17.15a.613.613 0 0 0 .598.477h12.07a.615.615 0 0 0 .607-.53l.858-6.175a.613.613 0 0 0-.455-.678Zm-8.14 3.91a.613.613 0 0 1-1.227 0v-2.696a.613.613 0 0 1 1.227 0v2.696Zm2.625 0a.613.613 0 0 1-1.227 0v-1.88a.613.613 0 0 1 1.227 0v1.88Zm2.625 0a.613.613 0 0 1-1.227 0v-1.226a.613.613 0 0 1 1.227 0v1.226Z"/></g><path fill-rule="evenodd" clip-rule="evenodd" d="M16.268 4.568a2.996 2.996 0 0 0-1.693-.523c-.627 0-1.21.193-1.693.523-.28-.843-.492-1.752-.492-2.383C12.39.98 13.37 0 14.575 0s2.185.98 2.185 2.185c0 .631-.212 1.54-.492 2.383Zm-4.722 2.274.024.006v-.011l-.024.005Zm4.972 1.217c-1.333-.33-2.766-.681-4.129-1.013a2.185 2.185 0 1 1 4.129 1.013Zm4.436 1.103c-.866-.217-2.155-.538-3.618-.9a2.995 2.995 0 0 0 .243-1.425c.87.18 1.762.45 2.308.765.596.344.969.928 1.067 1.56ZM9.869 6.439c-.36-.086-.706-.167-1.03-.243a2.19 2.19 0 0 1-.376-2.667 2.188 2.188 0 0 1 3.147-.7c.098.738.338 1.599.61 2.353a3.01 3.01 0 0 0-.449.774c-.628.113-1.305.278-1.902.483Zm10.124.075a3.43 3.43 0 0 1-.217.114c-.696-.295-1.587-.526-2.397-.672a3.01 3.01 0 0 0-.449-.774c.262-.727.494-1.553.599-2.273.095-.067.189-.128.278-.18a2.188 2.188 0 0 1 2.986.8 2.188 2.188 0 0 1-.8 2.985Z"/><defs><clipPath id="aa"><path transform="translate(0 3.064)" d="M0 0h20.936v20.936H0z"/></clipPath></defs></symbol><symbol viewBox="0 0 344.96 344.96" id="check" xmlns="http://www.w3.org/2000/svg"><g data-name="Слой 2"><path class="bcls-1" d="m321.85 86.24-40-23.11-23.1-40H212.5L172.48 0l-40 23.11H86.24l-23.11 40-40 23.1v46.21L0 172.48l23.11 40v46.21l40 23.11 23.11 40h46.21l40 23.1 40-23.11h46.21l23.11-40 40-23.11V212.5l23.11-40-23.11-40V86.24ZM156.91 243.07a16.79 16.79 0 0 1-23.34 0l-50.45-50.44a16.19 16.19 0 0 1 0-22.89l13.35-13.35a16.19 16.19 0 0 1 22.89 0l25.87 25.87 80.34-80.35a16.19 16.19 0 0 1 22.89 0l13.35 13.35a16.19 16.19 0 0 1 0 22.89Z" data-name="Capa 1"/></g></symbol><symbol viewBox="0 0 10 7" id="chevron-up" xmlns="http://www.w3.org/2000/svg"><path d="M0 4v3l5-4 5 4V4L5 0 0 4Z"/></symbol><symbol viewBox="0 0 27 26" id="dzen" xmlns="http://www.w3.org/2000/svg"><g clip-path="url(#da)"><path d="M11.533 10.85c1.516-1.517 1.8-3.8 1.85-7.85a10.025 10.025 0 0 0-9.7 9.7c4.05-.05 6.333-.333 7.85-1.85Zm4.3 0c1.516 1.517 3.8 1.8 7.85 1.85a10.025 10.025 0 0 0-9.7-9.7c.05 4.05.333 6.333 1.85 7.85Zm0 4.3c-1.517 1.517-1.8 3.8-1.85 7.85a10.025 10.025 0 0 0 9.7-9.7c-4.05.05-6.334.333-7.85 1.85Zm-4.3 0c-1.517-1.517-3.8-1.8-7.85-1.85a10.025 10.025 0 0 0 9.7 9.7c-.05-4.05-.334-6.333-1.85-7.85Z"/></g><defs><clipPath id="da"><path transform="translate(3.683 3)" d="M0 0h20v20H0z"/></clipPath></defs></symbol><symbol viewBox="0 0 26 26" id="facebook" xmlns="http://www.w3.org/2000/svg"><path d="M16.186 6.32h1.832V3.14a23.741 23.741 0 0 0-2.67-.14c-2.641 0-4.45 1.656-4.45 4.7v2.8H7.981v3.555h2.915V23h3.574v-8.944h2.798l.444-3.555H14.47V8.05c.001-1.027.279-1.73 1.716-1.73Z"/></symbol><symbol viewBox="0 0 24 24" id="fb" xmlns="http://www.w3.org/2000/svg"><path d="M13.397 20.997v-8.196h2.765l.411-3.209h-3.176V7.548c0-.926.258-1.56 1.587-1.56h1.684v-2.86A22.108 22.108 0 0 0 14.201 3c-2.444 0-4.122 1.492-4.122 4.231v2.355H7.332v3.21h2.753v8.201h3.312Z"/></symbol><symbol viewBox="0 0 27 26" id="instagram" xmlns="http://www.w3.org/2000/svg"><path d="M13.472 7.864c-2.846 0-5.15 2.299-5.15 5.132 0 2.836 2.307 5.131 5.15 5.131 2.845 0 5.15-2.298 5.15-5.131 0-2.836-2.307-5.132-5.15-5.132Zm0 8.463a3.335 3.335 0 0 1-3.342-3.331c0-1.84 1.495-3.33 3.342-3.33a3.336 3.336 0 0 1 3.342 3.33 3.334 3.334 0 0 1-3.342 3.33Z"/><path d="M17.606 3.063c-1.846-.086-6.42-.082-8.268 0-1.623.076-3.056.466-4.21 1.617-1.93 1.924-1.684 4.515-1.684 8.316 0 3.89-.217 6.421 1.683 8.316 1.938 1.93 4.576 1.677 8.345 1.677 3.867 0 5.201.003 6.568-.525 1.86-.719 3.262-2.375 3.4-5.349.086-1.84.081-6.397 0-8.239-.166-3.51-2.057-5.64-5.834-5.813Zm2.923 16.976c-1.265 1.261-3.02 1.148-7.081 1.148-4.181 0-5.858.062-7.081-1.16-1.41-1.398-1.154-3.642-1.154-7.044 0-4.604-.475-7.92 4.162-8.157 1.066-.037 1.38-.05 4.06-.05l.038.025c4.457 0 7.953-.465 8.163 4.155.047 1.054.058 1.37.058 4.04 0 4.117.078 5.798-1.165 7.043Z"/><path d="M18.825 8.861c.665 0 1.204-.537 1.204-1.199s-.539-1.2-1.204-1.2c-.664 0-1.203.538-1.203 1.2 0 .662.539 1.2 1.203 1.2Z"/></symbol><symbol viewBox="0 0 16 16" id="telegram" xmlns="http://www.w3.org/2000/svg"><path d="m14.629 3.698-2.012 9.618c-.152.679-.548.848-1.11.528l-3.066-2.29-1.48 1.442c-.163.166-.3.305-.616.305l.22-3.165 5.683-5.204c.247-.223-.054-.347-.384-.123L4.839 9.29l-3.024-.959c-.658-.208-.67-.667.137-.986L13.78 2.727c.548-.208 1.027.124.849.971Z"/></symbol><symbol viewBox="0 0 27 26" id="twitter" xmlns="http://www.w3.org/2000/svg"><path d="M23.606 6.799a8.601 8.601 0 0 1-2.371.647 4.08 4.08 0 0 0 1.81-2.266 8.24 8.24 0 0 1-2.609.993 4.13 4.13 0 0 0-3.005-1.298 4.106 4.106 0 0 0-4.112 4.101c0 .325.027.638.095.935a11.66 11.66 0 0 1-8.48-4.288 4.117 4.117 0 0 0-.564 2.072 4.1 4.1 0 0 0 1.828 3.407 4.075 4.075 0 0 1-1.86-.505v.046a4.123 4.123 0 0 0 3.297 4.028 4.13 4.13 0 0 1-1.078.135 3.65 3.65 0 0 1-.78-.07 4.152 4.152 0 0 0 3.845 2.857 8.286 8.286 0 0 1-5.101 1.748c-.338 0-.661-.015-.985-.056a11.613 11.613 0 0 0 6.312 1.84c7.571 0 11.71-6.25 11.71-11.668 0-.18-.006-.356-.014-.53A8.193 8.193 0 0 0 23.606 6.8Z"/></symbol><symbol viewBox="0 0 16 16" id="viber" xmlns="http://www.w3.org/2000/svg"><path d="M8 1.335c-1.071.013-3.374.19-4.662 1.37-.958.948-1.292 2.35-1.331 4.084-.033 1.728-.072 4.973 3.058 5.856v1.346s-.02.538.337.648c.438.14.688-.275 1.105-.72l.778-.879c2.142.178 3.782-.232 3.97-.293.435-.139 2.883-.451 3.283-3.696.41-3.351-.2-5.463-1.301-6.418h-.007c-.332-.306-1.668-1.279-4.652-1.29 0 0-.222-.014-.578-.008Zm.037.942a7.02 7.02 0 0 1 .488.011c2.527.007 3.732.767 4.017 1.023.927.794 1.405 2.697 1.055 5.495-.332 2.713-2.317 2.885-2.685 3.002-.156.05-1.6.406-3.42.289 0 0-1.356 1.634-1.78 2.055-.067.074-.146.095-.196.085-.071-.018-.093-.107-.089-.229l.013-2.233c-2.655-.733-2.498-3.5-2.47-4.946.033-1.446.304-2.628 1.113-3.43 1.088-.982 3.043-1.115 3.953-1.122Zm.2 1.446a.166.166 0 1 0 0 .332 3.136 3.136 0 0 1 2.242.883c.606.588.9 1.378.912 2.411 0 .092.074.167.167.167V7.51a.167.167 0 0 0 .168-.165 3.588 3.588 0 0 0-1.009-2.646c-.66-.645-1.496-.977-2.48-.977Zm-2.198.382a.523.523 0 0 0-.342.067H5.69a2.61 2.61 0 0 0-.637.523 1.003 1.003 0 0 0-.256.525.71.71 0 0 0 .026.302l.01.006c.172.504.396.988.67 1.444a8.48 8.48 0 0 0 1.29 1.762l.015.022.024.017.015.018.017.015c.532.505 1.127.94 1.769 1.295.734.4 1.18.588 1.447.667v.004c.078.024.15.034.221.034.228-.016.444-.109.613-.262a2.53 2.53 0 0 0 .517-.638v-.004c.128-.241.085-.469-.1-.623-.37-.323-.77-.61-1.195-.857-.285-.155-.574-.061-.69.095l-.25.315c-.129.156-.361.134-.361.134l-.007.004C7.093 8.527 6.63 6.772 6.63 6.772s-.022-.239.139-.36l.312-.252c.15-.122.254-.41.094-.695a7.498 7.498 0 0 0-.856-1.194.475.475 0 0 0-.28-.167Zm2.486.495c-.221 0-.221.334.003.334A2.098 2.098 0 0 1 10 5.572 1.94 1.94 0 0 1 10.5 7a.168.168 0 0 0 .167.165l.007.009a.169.169 0 0 0 .167-.167c.015-.662-.191-1.218-.595-1.663C9.84 4.9 9.273 4.65 8.549 4.6h-.024Zm.274.898c-.228-.006-.236.335-.01.341.55.029.816.306.851.877a.166.166 0 0 0 .165.163h.007a.168.168 0 0 0 .16-.178c-.039-.744-.445-1.164-1.166-1.202H8.8Z"/></symbol><symbol viewBox="0 0 27 26" id="vk" xmlns="http://www.w3.org/2000/svg"><path d="M22.184 14.101c-.417-.525-.298-.758 0-1.227.005-.006 3.45-4.748 3.804-6.356l.002-.001c.177-.586 0-1.017-.852-1.017h-2.822c-.718 0-1.049.37-1.226.783 0 0-1.437 3.427-3.469 5.648-.656.642-.959.847-1.317.847-.176 0-.45-.206-.45-.792v-5.47c0-.702-.201-1.016-.796-1.016h-4.436c-.45 0-.718.328-.718.633 0 .667 1.016.82 1.121 2.695v4.068c0 .891-.162 1.055-.522 1.055-.96 0-3.287-3.44-4.667-7.377C5.558 5.81 5.286 5.5 4.562 5.5H1.74c-.805 0-.968.37-.968.783 0 .731.96 4.364 4.46 9.164 2.333 3.277 5.619 5.052 8.608 5.052 1.796 0 2.016-.394 2.016-1.073 0-3.13-.162-3.426.737-3.426.418 0 1.136.206 2.813 1.786 1.917 1.874 2.232 2.713 3.305 2.713h2.821c.804 0 1.212-.394.977-1.172-.536-1.636-4.161-5.002-4.325-5.227Z"/></symbol><symbol viewBox="0 0 16 16" id="whatsapp" xmlns="http://www.w3.org/2000/svg"><path fill-rule="evenodd" clip-rule="evenodd" d="M12.269 3.755A5.947 5.947 0 0 0 8.035 2 5.994 5.994 0 0 0 2.05 7.985a5.98 5.98 0 0 0 .799 2.992L2 14.077l3.173-.832c.877.477 1.86.728 2.86.728h.002a5.993 5.993 0 0 0 5.533-8.276 5.953 5.953 0 0 0-1.3-1.942Zm-4.234 9.208h-.002c-.89 0-1.765-.24-2.532-.694l-.181-.108-1.883.494.502-1.835-.118-.188a4.965 4.965 0 0 1-.76-2.647 4.982 4.982 0 0 1 6.88-4.597c.604.25 1.152.618 1.613 1.081a4.946 4.946 0 0 1 1.455 3.52 4.982 4.982 0 0 1-4.974 4.974Zm2.729-3.726c-.15-.075-.885-.436-1.022-.486-.137-.05-.236-.075-.336.074-.1.15-.387.486-.474.586-.087.1-.175.112-.324.038-.15-.075-.631-.233-1.203-.742a4.505 4.505 0 0 1-.832-1.036c-.087-.15-.009-.231.066-.306.068-.066.15-.174.224-.262.075-.087.1-.149.15-.249.05-.1.025-.187-.013-.262-.037-.075-.337-.811-.461-1.11-.121-.29-.244-.252-.336-.256a6.418 6.418 0 0 0-.286-.005.55.55 0 0 0-.4.186c-.137.15-.523.512-.523 1.248s.536 1.447.61 1.547c.075.1 1.055 1.61 2.555 2.258.358.154.636.246.853.315.358.114.684.098.942.06.287-.043.885-.362 1.01-.711.124-.35.124-.649.087-.711-.038-.063-.138-.101-.287-.176Z"/></symbol><symbol viewBox="0 0 26 26" id="youtube" xmlns="http://www.w3.org/2000/svg"><path d="M13.757 21c1.938-.062 3.87-.11 5.796-.197.817-.036 1.64-.101 2.441-.243 1.363-.237 2.176-1.092 2.449-2.449a20.41 20.41 0 0 0 .393-3.791c.015-1.168.004-2.34-.043-3.507a19.68 19.68 0 0 0-.397-3.228c-.234-1.131-1.174-1.993-2.394-2.197-1.206-.204-2.423-.291-3.644-.317a281.08 281.08 0 0 0-6.991-.069c-1.505.007-3.01.095-4.51.178-.726.04-1.455.113-2.169.244-1.235.237-1.996 1.015-2.277 2.234-.273 1.179-.379 2.383-.397 3.591a61.274 61.274 0 0 0 .044 4.09c.047.99.19 1.979.357 2.954a2.7 2.7 0 0 0 2.306 2.22c1.1.149 2.204.272 3.312.323 1.91.091 3.822.113 5.724.164ZM11.199 9.536c2.004 1.15 3.986 2.284 6 3.438a5141.7 5141.7 0 0 1-6 3.438V9.536Z"/></symbol></svg>