<svg width="27" height="26" viewBox="0 0 27 26" fill="none" xmlns="http://www.w3.org/2000/svg">
<g clip-path="url(#clip0_2003_9)">
<path d="M11.5326 10.85C13.0493 9.33333 13.3326 7.05 13.3826 3C8.09928 3.16667 3.84928 7.41667 3.68262 12.7C7.73262 12.65 10.016 12.3667 11.5326 10.85Z" fill="white"/>
<path d="M15.8327 10.85C17.3493 12.3667 19.6327 12.65 23.6827 12.7C23.516 7.41667 19.266 3.16667 13.9827 3C14.0327 7.05 14.316 9.33333 15.8327 10.85Z" fill="white"/>
<path d="M15.8327 15.15C14.316 16.6667 14.0327 18.95 13.9827 23C19.266 22.8334 23.516 18.5834 23.6827 13.3C19.6327 13.35 17.3493 13.6334 15.8327 15.15Z" fill="white"/>
<path d="M11.5326 15.15C10.016 13.6334 7.73262 13.35 3.68262 13.3C3.84928 18.5834 8.09928 22.8334 13.3826 23C13.3326 18.95 13.0493 16.6667 11.5326 15.15Z" fill="white"/>
</g>
<defs>
<clipPath id="clip0_2003_9">
<rect width="20" height="20" fill="white" transform="translate(3.68262 3)"/>
</clipPath>
</defs>
</svg>
