<svg width="27" height="26" viewBox="0 0 27 26" fill="none" xmlns="http://www.w3.org/2000/svg">
<path d="M13.4719 7.86426C10.6262 7.86426 8.32239 10.1626 8.32239 12.9958C8.32239 15.8316 10.6287 18.1274 13.4719 18.1274C16.3175 18.1274 18.6213 15.8291 18.6213 12.9958C18.6213 10.1601 16.315 7.86426 13.4719 7.86426V7.86426ZM13.4719 16.3266C11.6246 16.3266 10.1295 14.8358 10.1295 12.9958C10.1295 11.1559 11.6255 9.66506 13.4719 9.66506C15.3182 9.66506 16.8143 11.1559 16.8143 12.9958C16.8151 14.8358 15.3191 16.3266 13.4719 16.3266V16.3266Z" fill="white"/>
<path d="M17.6061 3.06282C15.7598 2.97699 11.1865 2.98116 9.33844 3.06282C7.7145 3.13865 6.28206 3.52948 5.12725 4.68029C3.19726 6.60359 3.44394 9.19521 3.44394 12.996C3.44394 16.8859 3.22652 19.4175 5.12725 21.3117C7.06476 23.2416 9.70303 22.9891 13.4719 22.9891C17.3385 22.9891 18.6731 22.9916 20.0403 22.4641C21.8993 21.745 23.3024 20.0892 23.4396 17.1151C23.5265 15.2743 23.5215 10.7177 23.4396 8.87605C23.274 5.36528 21.3833 3.23615 17.6061 3.06282V3.06282ZM20.5287 20.0392C19.2635 21.3 17.5083 21.1875 13.4476 21.1875C9.26652 21.1875 7.58991 21.2492 6.36652 20.0267C4.95749 18.6292 5.21254 16.3851 5.21254 12.9826C5.21254 8.37856 4.73841 5.06279 9.37523 4.82612C10.4406 4.78862 10.7542 4.77612 13.4359 4.77612L13.4735 4.80112C17.9297 4.80112 21.426 4.33613 21.6359 8.95605C21.6835 10.0102 21.6944 10.3269 21.6944 12.9951C21.6936 17.1134 21.7722 18.7942 20.5287 20.0392V20.0392Z" fill="white"/>
<path d="M18.8254 8.86118C19.49 8.86118 20.0287 8.3243 20.0287 7.66203C20.0287 6.99976 19.49 6.46289 18.8254 6.46289C18.1608 6.46289 17.6221 6.99976 17.6221 7.66203C17.6221 8.3243 18.1608 8.86118 18.8254 8.86118Z" fill="white"/>
</svg>
