<svg width="27" height="26" viewBox="0 0 27 26" fill="none" xmlns="http://www.w3.org/2000/svg">
<path d="M23.6057 6.79875C22.8594 7.125 22.0641 7.34125 21.235 7.44625C22.088 6.93875 22.739 6.14125 23.045 5.18C22.2498 5.6525 21.3717 5.98625 20.436 6.1725C19.6809 5.37125 18.6046 4.875 17.4306 4.875C15.1527 4.875 13.3188 6.7175 13.3188 8.97625C13.3188 9.30125 13.3464 9.61375 13.4141 9.91125C9.99352 9.745 6.96678 8.11125 4.93348 5.6225C4.5785 6.23625 4.37027 6.93875 4.37027 7.695C4.37027 9.115 5.10407 10.3737 6.19786 11.1025C5.53682 11.09 4.88832 10.8987 4.33892 10.5975C4.33892 10.61 4.33892 10.6262 4.33892 10.6425C4.33892 12.635 5.76511 14.29 7.63535 14.6712C7.30043 14.7625 6.93542 14.8062 6.55661 14.8062C6.29319 14.8062 6.02727 14.7912 5.77765 14.7362C6.31075 16.36 7.8235 17.5537 9.62223 17.5925C8.22238 18.6837 6.44497 19.3412 4.5208 19.3412C4.18338 19.3412 3.85975 19.3262 3.53613 19.285C5.3587 20.4562 7.51869 21.125 9.84802 21.125C17.4193 21.125 21.5586 14.875 21.5586 9.4575C21.5586 9.27625 21.5523 9.10125 21.5436 8.9275C22.3601 8.35 23.0463 7.62875 23.6057 6.79875Z" fill="white"/>
</svg>
