<svg width="27" height="26" viewBox="0 0 27 26" fill="none" xmlns="http://www.w3.org/2000/svg">
<path d="M22.1842 14.1014C21.767 13.5764 21.8863 13.3429 22.1842 12.8736C22.1895 12.8682 25.6333 8.12607 25.9881 6.51786L25.9902 6.51679C26.1665 5.93071 25.9902 5.5 25.1376 5.5H22.3164C21.5982 5.5 21.2671 5.86964 21.0897 6.28321C21.0897 6.28321 19.6533 9.70964 17.6212 11.9307C16.9654 12.5725 16.6622 12.7782 16.3041 12.7782C16.1278 12.7782 15.8537 12.5725 15.8537 11.9864V6.51679C15.8537 5.81393 15.6526 5.5 15.058 5.5H10.622C10.1715 5.5 9.90375 5.82786 9.90375 6.13321C9.90375 6.79964 10.9198 6.95286 11.0251 8.82786V12.8961C11.0251 13.7875 10.8628 13.9514 10.5026 13.9514C9.54357 13.9514 7.21586 10.5111 5.83644 6.57357C5.55797 5.80964 5.28596 5.50107 4.56238 5.50107H1.7401C0.934809 5.50107 0.772461 5.87071 0.772461 6.28429C0.772461 7.015 1.7315 10.6482 5.2322 15.4482C7.56529 18.7246 10.851 20.5 13.8399 20.5C15.6365 20.5 15.8558 20.1057 15.8558 19.4275C15.8558 16.2968 15.6935 16.0011 16.5934 16.0011C17.0105 16.0011 17.7287 16.2068 19.406 17.7871C21.323 19.6611 21.638 20.5 22.711 20.5H25.5322C26.3364 20.5 26.7439 20.1057 26.5095 19.3279C25.973 17.6918 22.3476 14.3264 22.1842 14.1014V14.1014Z" fill="white"/>
</svg>
