<svg width="26" height="26" viewBox="0 0 26 26" fill="none" xmlns="http://www.w3.org/2000/svg">
<path d="M13.7568 21C15.6951 20.9381 17.6261 20.8908 19.5534 20.8035C20.3696 20.7671 21.193 20.7017 21.9945 20.5598C23.3572 20.3233 24.1697 19.4682 24.4429 18.1111C24.6943 16.8595 24.8218 15.5934 24.8364 14.32C24.851 13.152 24.84 11.9805 24.7927 10.8126C24.749 9.72834 24.6178 8.65139 24.3956 7.58535C24.1624 6.45382 23.2224 5.59152 22.0018 5.38778C20.7959 5.18403 19.579 5.09671 18.3584 5.07124C16.0266 5.02394 13.6948 4.99119 11.3667 5.00211C9.86195 5.00938 8.35722 5.09671 6.85613 5.18039C6.13109 5.22041 5.40241 5.29318 4.6883 5.42416C3.45318 5.66065 2.69171 6.43926 2.41116 7.65811C2.13791 8.83695 2.03225 10.0412 2.01403 11.2492C1.99217 12.6136 1.98853 13.978 2.05775 15.3387C2.10512 16.3283 2.24721 17.318 2.41481 18.2931C2.61519 19.4573 3.54427 20.3524 4.72109 20.5125C5.8214 20.6616 6.92536 20.7853 8.03296 20.8363C9.94211 20.9272 11.8549 20.9491 13.7568 21ZM11.1991 9.53551C13.203 10.6852 15.185 11.8204 17.1998 12.9738C15.1886 14.1271 13.2103 15.2623 11.1991 16.412C11.1991 14.1053 11.1991 11.8459 11.1991 9.53551Z" fill="white"/>
</svg>
